<?xml version="1.0" standalone="no"?>
<!DOCTYPE svg PUBLIC "-//W3C//DTD SVG 20010904//EN"
 "http://www.w3.org/TR/2001/REC-SVG-20010904/DTD/svg10.dtd">
<svg version="1.0" xmlns="http://www.w3.org/2000/svg"
 width="499.000000pt" height="500.000000pt" viewBox="0 0 499.000000 500.000000"
 preserveAspectRatio="xMidYMid meet">

<g transform="translate(0.000000,500.000000) scale(0.100000,-0.100000)"
fill="#000000" stroke="none">
<path d="M2300 4678 c-153 -15 -353 -56 -484 -98 -71 -22 -133 -43 -138 -46
-11 -7 48 -53 77 -60 11 -3 40 2 64 11 24 8 45 15 47 15 2 0 4 -19 4 -42 0
-88 73 -161 170 -171 60 -6 83 -35 76 -97 -5 -44 -3 -49 35 -86 l39 -38 0 106
c0 88 -3 110 -19 129 -18 22 -18 23 10 68 34 52 39 123 13 172 -8 17 -14 32
-12 34 2 2 36 7 76 10 l72 8 0 -257 0 -256 -40 -37 -41 -36 22 -23 c13 -13 28
-24 34 -24 7 0 33 22 59 50 l46 49 -2 312 c-2 198 -7 313 -13 314 -5 1 -48 -2
-95 -7z m-185 -150 c35 -42 34 -91 -4 -129 -53 -52 -138 -33 -161 37 -23 69
42 140 116 126 13 -2 35 -18 49 -34z"/>
<path d="M2017 4494 c-12 -12 -8 -51 7 -63 22 -19 58 7 54 39 -2 18 -10 26
-28 28 -14 2 -29 0 -33 -4z"/>
<path d="M2550 4368 l0 -324 48 -47 48 -47 27 28 26 27 -39 38 -40 37 0 261
c0 243 1 260 18 255 9 -3 43 -8 75 -12 31 -3 57 -9 57 -13 0 -3 -7 -15 -15
-25 -9 -13 -15 -43 -15 -81 0 -48 5 -68 25 -97 30 -44 30 -46 8 -71 -15 -16
-18 -38 -18 -123 0 -57 3 -104 6 -104 4 0 21 16 38 35 27 31 31 43 31 90 0 70
22 95 80 95 64 0 116 32 145 90 14 27 25 65 25 85 l0 35 49 -19 49 -18 47 30
c25 16 42 33 38 37 -4 4 -63 26 -131 49 -137 45 -309 80 -529 107 l-53 6 0
-324z m431 161 c24 -34 27 -75 9 -109 -20 -37 -41 -49 -83 -50 -107 -1 -137
161 -35 188 49 13 86 3 109 -29z"/>
<path d="M2873 4484 c-9 -24 10 -49 38 -49 20 0 24 5 24 30 0 25 -4 30 -28 33
-18 2 -29 -2 -34 -14z"/>
<path d="M1457 4506 c-59 -21 -83 -44 -119 -111 -24 -45 -93 -488 -104 -672
-5 -73 -10 -100 -19 -97 -13 5 -25 -57 -25 -133 0 -32 -4 -44 -12 -40 -53 22
-51 23 -43 -24 6 -40 24 -117 41 -176 5 -18 1 -25 -20 -34 l-27 -13 41 -41 41
-42 -41 -40 c-44 -45 -50 -63 -21 -63 35 0 31 -16 -15 -61 -40 -38 -134 -180
-134 -201 0 -5 14 -8 30 -8 32 0 38 -11 16 -29 -19 -16 -68 -129 -61 -141 3
-6 17 -10 30 -10 l24 0 -28 -62 c-49 -108 -49 -108 -2 -108 l41 0 0 -67 c1
-90 29 -213 49 -213 4 0 13 15 20 33 l14 32 8 -65 c4 -36 12 -78 19 -94 l11
-30 19 32 c17 27 40 43 40 28 0 -6 -142 -360 -146 -365 -7 -8 -17 9 -18 31 -1
22 -5 23 -88 26 -110 4 -128 -5 -121 -56 4 -31 0 -44 -22 -70 -22 -27 -34 -32
-68 -32 -45 1 -67 13 -85 47 -33 61 14 133 85 133 22 0 44 -5 49 -10 8 -8 15
-6 24 5 11 13 11 19 -4 33 -12 12 -34 17 -81 17 -72 0 -101 -19 -136 -88 -17
-33 -23 -37 -58 -37 -39 0 -40 1 -64 63 -13 34 -22 65 -20 70 2 4 41 7 85 7
l81 0 52 55 51 55 90 0 91 0 42 -45 c37 -40 47 -45 86 -45 38 0 45 4 58 29 18
35 14 41 -28 41 -25 0 -41 10 -74 45 l-42 45 -134 0 -135 0 -32 -37 c-68 -76
-63 -73 -142 -73 -58 0 -75 3 -80 16 -15 39 -8 43 75 46 64 2 84 7 93 20 8 13
6 22 -8 37 -16 18 -31 21 -103 21 -80 0 -84 1 -93 26 -22 58 -16 64 59 64 49
0 72 4 81 15 10 12 46 15 206 15 l193 0 41 -55 c33 -45 46 -55 70 -55 17 0 30
4 30 8 0 5 -21 44 -47 88 l-48 79 -220 5 c-191 4 -223 3 -245 -11 -14 -9 -35
-19 -46 -23 -32 -10 -99 21 -113 50 -15 35 -14 85 4 110 32 47 117 63 146 28
9 -11 45 -14 158 -14 l147 0 34 -35 c30 -31 39 -35 88 -35 49 0 53 2 50 22 -2
14 -13 24 -31 29 -16 4 -46 28 -68 53 l-40 45 -157 5 c-86 3 -190 8 -231 11
-48 5 -77 3 -84 -4 -22 -22 -27 -10 -27 59 0 67 1 70 19 60 30 -15 134 -12
157 5 15 11 58 14 207 15 l188 0 14 33 13 32 -206 5 c-189 5 -210 3 -240 -14
-69 -39 -152 13 -152 96 0 32 7 47 34 74 44 44 83 45 129 4 33 -29 39 -30 125
-30 l90 0 51 55 50 56 42 -46 c24 -26 49 -54 56 -63 12 -16 15 -15 33 7 30 35
25 50 -32 108 l-52 53 34 36 c34 35 37 36 91 31 53 -5 57 -3 73 24 16 27 16
28 -3 39 -11 5 -53 10 -94 10 -74 0 -75 0 -108 -37 -18 -21 -66 -75 -107 -120
l-76 -83 -56 0 c-41 0 -62 5 -76 19 -37 34 -65 43 -111 37 l-45 -5 6 39 c14
91 13 90 131 90 59 0 115 -5 125 -10 15 -8 25 -5 45 12 30 27 27 50 -11 67
-22 10 -25 16 -21 46 3 22 19 51 41 75 42 47 43 51 15 76 -20 18 -21 18 -59
-24 -38 -40 -42 -42 -99 -42 -33 0 -62 4 -65 9 -3 5 11 42 32 82 l37 74 111 3
111 3 54 -62 c98 -113 92 -109 180 -109 44 0 79 2 79 4 0 1 -5 17 -11 34 -10
30 -13 31 -53 26 l-42 -6 -83 91 -83 90 -113 3 -113 3 51 87 c29 48 55 88 59
88 4 0 14 -15 22 -34 40 -95 161 -144 249 -100 80 41 117 97 117 181 0 85 -57
166 -126 179 -49 9 -50 21 -3 27 22 3 49 13 60 23 19 17 21 16 79 -41 74 -73
79 -64 8 11 l-52 55 17 29 c10 15 20 49 24 75 4 33 13 51 30 63 66 46 74 57
87 120 7 34 11 62 9 62 -3 0 -38 -26 -80 -57 -41 -32 -80 -62 -87 -67 -9 -6
-24 -1 -44 14 -37 27 -89 35 -69 11 10 -12 9 -14 -5 -8 -10 3 -18 2 -18 -4 0
-6 -4 -8 -9 -5 -14 9 -72 -24 -65 -37 4 -7 1 -7 -7 1 -9 8 -10 15 -4 20 12 8
18 32 8 32 -9 0 -149 -146 -182 -190 -14 -19 -31 -40 -37 -47 -14 -14 -116
-155 -151 -208 -27 -41 -133 -225 -133 -231 0 -2 -16 -36 -35 -76 -86 -177
-158 -425 -190 -652 -69 -501 24 -1011 267 -1461 139 -257 401 -558 653 -752
46 -35 222 -153 229 -153 3 0 27 -13 53 -28 149 -87 422 -186 640 -232 367
-77 611 -78 958 -4 562 119 1019 403 1369 849 119 152 119 152 173 241 124
203 231 479 287 744 44 209 57 526 31 755 -48 419 -222 835 -487 1172 -18 23
-51 65 -74 95 -45 58 -227 236 -278 269 l-31 22 30 -32 c17 -17 43 -44 60 -60
37 -38 29 -47 -21 -25 -72 33 -75 34 -70 25 3 -5 -10 -19 -30 -30 l-35 -21
-86 65 c-48 36 -87 64 -89 62 -1 -1 4 -28 10 -60 10 -51 18 -64 63 -105 40
-36 53 -56 58 -87 4 -21 13 -52 21 -67 13 -25 13 -31 -2 -53 -9 -14 -25 -30
-35 -36 -10 -5 -23 -19 -30 -32 -6 -12 13 2 41 30 l51 53 37 -20 c20 -10 51
-22 67 -26 l30 -7 -30 -7 c-99 -22 -145 -83 -145 -189 1 -103 62 -176 158
-188 90 -10 189 48 208 122 3 14 10 25 14 25 10 0 109 -154 110 -172 0 -5 -50
-8 -111 -8 l-111 0 -42 -47 c-22 -25 -48 -57 -57 -70 -25 -37 -60 -57 -109
-63 -40 -4 -45 -8 -48 -32 l-3 -28 75 0 75 0 58 67 c99 114 79 104 206 101
l112 -3 27 -57 c15 -31 30 -69 34 -83 6 -25 6 -25 -55 -25 -56 0 -64 3 -100
35 -44 40 -52 42 -75 16 -15 -17 -15 -19 0 -32 27 -22 64 -87 64 -111 0 -12
-12 -34 -26 -49 -21 -22 -24 -31 -15 -47 10 -18 19 -19 150 -14 l139 5 16 -56
c9 -30 16 -58 16 -61 0 -3 -25 -6 -55 -6 -46 0 -59 -4 -88 -30 -30 -26 -43
-30 -90 -30 l-55 0 -89 97 c-143 157 -122 143 -206 143 -46 0 -80 -5 -92 -14
-18 -13 -18 -14 1 -39 17 -23 24 -25 66 -20 41 5 52 2 83 -21 19 -15 35 -33
35 -41 0 -8 -22 -38 -49 -67 -51 -54 -51 -58 -19 -101 13 -18 18 -15 70 42
l56 60 50 -55 50 -54 87 0 c78 0 90 3 117 25 59 49 116 44 155 -14 31 -46 30
-89 -5 -130 -24 -29 -35 -34 -74 -35 -25 -1 -52 5 -62 13 -13 11 -59 14 -224
12 -114 -1 -208 -4 -209 -5 -2 -2 2 -17 8 -34 l11 -32 188 0 c160 0 189 -2
201 -16 11 -13 29 -15 102 -12 l88 4 -3 -60 c-2 -49 -6 -60 -18 -56 -35 10
-153 11 -163 1 -7 -7 -66 -11 -160 -11 l-148 0 -53 -50 c-30 -28 -62 -50 -74
-50 -17 0 -22 -6 -22 -25 0 -23 3 -25 53 -25 48 0 54 3 80 35 l28 35 147 0
c115 0 152 3 169 15 62 44 163 -8 163 -85 0 -29 -26 -77 -49 -90 -29 -15 -94
-12 -119 6 -19 13 -57 15 -239 14 -136 0 -222 -5 -230 -11 -7 -6 -23 -30 -36
-52 -13 -23 -34 -59 -46 -80 l-23 -37 35 0 c31 0 41 7 79 55 l43 55 193 0
c162 0 194 -2 198 -15 5 -11 24 -15 81 -15 l75 0 -7 -37 c-4 -21 -9 -41 -11
-45 -3 -5 -45 -8 -93 -8 -75 0 -91 -3 -106 -20 -17 -19 -17 -21 0 -40 15 -17
31 -20 97 -20 43 0 78 -2 78 -4 0 -3 -4 -16 -10 -30 -9 -25 -13 -26 -81 -26
l-71 0 -51 55 -50 55 -135 0 -135 0 -41 -45 c-33 -35 -49 -45 -74 -45 -35 0
-37 -5 -22 -44 8 -22 16 -26 53 -26 39 0 48 5 86 45 l42 45 92 0 92 0 48 -55
48 -55 85 0 c97 0 97 0 60 -85 -24 -53 -26 -55 -63 -55 -36 0 -41 3 -61 45
-12 25 -36 54 -54 65 -45 27 -117 27 -152 -1 -37 -29 -24 -40 42 -33 48 5 61
3 84 -15 35 -28 44 -71 24 -110 -20 -37 -44 -51 -88 -51 -48 0 -92 46 -92 98
-1 59 -7 62 -107 62 -87 0 -90 -1 -99 -26 -9 -23 -30 -26 -30 -3 0 6 -14 45
-31 87 -18 43 -44 109 -59 147 -15 39 -31 78 -35 87 -12 30 14 20 34 -12 l18
-31 17 59 c9 32 16 73 16 91 0 29 2 32 15 21 8 -7 15 -21 15 -32 0 -17 3 -18
14 -9 20 17 46 137 46 212 0 52 2 60 16 55 21 -8 64 3 64 18 0 6 -14 40 -30
74 -36 77 -37 82 -5 82 33 0 32 14 -10 96 -19 38 -35 72 -35 77 0 4 11 7 25 7
14 0 25 4 25 8 0 30 -85 155 -144 211 -42 41 -45 51 -12 51 41 0 38 16 -11 61
l-46 43 44 39 c24 22 39 42 33 44 -6 2 -19 9 -28 16 -15 11 -15 19 9 112 14
55 25 110 25 123 0 22 -1 22 -22 8 -12 -9 -26 -16 -30 -16 -5 0 -8 26 -8 59 0
78 -9 121 -26 121 -10 0 -14 14 -14 50 0 66 -56 515 -76 610 -33 155 -96 220
-214 220 -47 0 -73 -6 -118 -29 -94 -48 -135 -83 -474 -418 l-168 -165 -52 7
c-68 10 -218 10 -286 0 l-53 -7 -237 234 c-130 129 -266 256 -302 282 -114 86
-211 118 -283 92z m166 -116 c100 -60 239 -194 353 -340 47 -59 122 -195 113
-204 -3 -3 -20 -1 -38 5 -23 8 -35 8 -45 0 -7 -6 -16 -7 -20 -3 -4 4 -7 2 -6
-3 1 -6 2 -28 1 -50 l-2 -40 -28 71 c-15 40 -45 103 -66 140 -104 189 -309
404 -385 404 -31 0 -77 -48 -106 -112 l-15 -33 6 43 c13 99 76 167 148 158 21
-2 62 -18 90 -36z m1874 15 c25 -17 56 -76 68 -130 6 -24 0 -19 -27 25 -59 96
-100 94 -213 -12 -171 -160 -290 -343 -346 -533 l-18 -60 6 70 5 70 -56 -2
c-31 -1 -56 3 -56 8 0 16 56 123 93 177 71 103 164 206 257 285 147 123 217
148 287 102z m-1875 -200 c91 -92 238 -356 238 -428 0 -45 -6 -49 -46 -32 -31
13 -49 5 -24 -10 29 -18 -23 -86 -83 -108 -28 -10 -31 -34 -7 -67 12 -16 17
-30 12 -30 -14 0 -83 53 -121 94 -43 45 -134 95 -124 68 4 -9 22 -37 40 -61
58 -75 60 -89 7 -44 -27 22 -60 53 -73 67 -55 59 -45 24 44 -156 29 -58 56
-116 60 -127 l6 -21 -50 20 c-28 11 -51 16 -51 12 0 -5 16 -23 35 -42 l35 -34
-22 -23 c-12 -13 -29 -23 -39 -23 -12 0 -16 -6 -12 -19 3 -12 -5 -26 -22 -39
-25 -20 -29 -20 -56 -6 -17 8 -43 37 -60 64 -34 55 -44 63 -29 25 6 -16 6 -25
0 -25 -14 0 -27 30 -35 83 l-7 48 64 -36 c36 -19 67 -35 71 -35 3 0 -10 24
-29 53 -31 47 -50 96 -68 180 -4 15 -4 27 -1 27 2 0 30 -16 61 -36 53 -34 56
-35 49 -12 -4 12 -13 34 -20 48 -44 88 -43 220 1 420 28 130 60 204 109 256
l34 36 32 -19 c17 -10 54 -40 81 -68z m1866 42 c68 -70 124 -290 126 -497 1
-105 -1 -120 -26 -172 -15 -32 -23 -58 -19 -58 4 0 27 14 49 30 23 17 46 30
50 30 5 0 5 -26 0 -57 -8 -53 -51 -144 -86 -185 -8 -10 -13 -18 -10 -18 8 0
102 51 112 61 6 5 13 9 17 9 8 0 -15 -127 -25 -138 -5 -4 -7 0 -6 8 6 38 -1
43 -18 15 -25 -40 -80 -95 -96 -95 -7 0 -22 14 -35 31 -19 25 -20 33 -9 46 11
14 10 15 -10 9 -16 -6 -29 -2 -43 10 -25 23 -24 30 12 71 35 41 33 50 -8 30
-15 -8 -39 -18 -53 -22 -20 -7 -23 -5 -14 6 17 21 132 269 140 303 6 27 0 22
-67 -41 -41 -40 -75 -70 -77 -68 -2 2 21 37 52 78 31 41 56 77 56 80 0 4 -23
-5 -52 -18 -33 -15 -72 -46 -110 -89 -33 -37 -64 -64 -68 -61 -5 3 -13 -2 -18
-11 -5 -9 -15 -14 -21 -10 -8 5 -4 17 14 38 25 29 35 65 15 53 -6 -4 -18 -1
-26 6 -11 9 -18 9 -26 1 -16 -16 -33 -15 -21 1 6 6 13 23 16 35 5 22 4 23 -12
8 -24 -22 -34 -20 -26 4 5 14 2 20 -9 20 -20 0 -20 11 -1 36 29 38 10 47 -32
14 -14 -11 -30 -20 -34 -20 -31 0 21 148 105 297 75 132 196 263 246 263 9 0
30 -15 48 -33z m-2483 -83 c29 -19 49 -66 41 -97 -3 -13 -17 -36 -30 -50 -34
-37 -106 -38 -141 -3 -51 51 -42 109 25 154 37 25 63 24 105 -4z m3029 16 c8
0 25 -12 40 -26 30 -31 35 -78 11 -123 -17 -33 -33 -41 -84 -41 -48 0 -78 22
-92 69 -9 31 -8 43 6 70 17 33 69 64 93 56 8 -3 19 -5 26 -5z m111 -61 c-3 -4
2 -10 11 -13 8 -3 12 -10 9 -16 -3 -5 0 -7 8 -4 14 5 104 -103 99 -118 -1 -5
2 -7 7 -5 8 2 71 -75 71 -87 0 -3 13 -19 30 -37 22 -25 27 -36 18 -46 -8 -11
-7 -12 7 -7 14 6 16 3 10 -17 -4 -16 -3 -20 3 -10 11 15 27 -2 17 -19 -3 -5 0
-7 9 -4 10 4 13 0 10 -13 -3 -11 5 -30 20 -46 14 -16 26 -34 26 -41 0 -6 5
-17 12 -24 7 -7 8 -12 3 -12 -4 0 0 -9 10 -20 10 -12 19 -30 20 -41 2 -21 -12
-13 -17 11 -5 23 -27 42 -40 34 -7 -5 -9 -2 -5 9 3 9 1 18 -6 21 -9 3 -8 7 3
15 8 5 11 14 6 18 -5 4 -11 2 -13 -4 -7 -18 -23 -16 -23 3 0 9 -5 12 -12 8 -7
-5 -9 -1 -6 13 3 12 1 27 -4 34 -8 11 -9 10 -4 -3 3 -10 1 -18 -4 -18 -5 0
-10 12 -12 27 -2 16 -12 32 -24 38 -11 6 -19 16 -16 23 2 8 -9 27 -26 43 -16
16 -35 43 -42 59 -7 17 -19 30 -27 30 -8 0 -11 5 -7 13 4 6 4 9 -1 5 -4 -4
-22 13 -40 37 -17 25 -35 42 -40 38 -4 -5 -6 -1 -2 8 3 10 -4 26 -19 40 -13
12 -24 30 -24 40 0 10 -4 21 -10 24 -15 9 -12 22 5 22 8 0 12 -4 10 -8z
m-3351 -51 c-5 -7 -10 -22 -11 -32 -8 -48 -46 -56 -72 -16 -9 13 -11 21 -5 17
6 -3 19 2 29 13 10 11 22 17 28 13 7 -4 8 0 3 12 -6 16 -4 16 11 4 15 -13 16
-12 9 6 -5 15 -4 17 5 8 6 -6 8 -17 3 -25z m-49 -81 c4 5 2 -2 -4 -14 -6 -13
-17 -23 -23 -23 -6 0 -8 -3 -5 -6 3 -4 -5 -15 -18 -26 -13 -10 -27 -27 -30
-38 -4 -11 -11 -20 -16 -20 -6 0 -8 4 -4 9 3 5 0 13 -6 17 -8 4 -9 3 -5 -4 4
-7 1 -12 -6 -12 -8 0 -6 -5 5 -11 9 -6 15 -15 12 -20 -4 -5 -12 -6 -18 -3 -7
4 -9 4 -5 -1 5 -5 -1 -15 -12 -22 -11 -8 -18 -19 -14 -24 3 -5 0 -8 -7 -7 -6
2 -14 -3 -17 -11 -3 -8 0 -11 7 -7 18 12 12 0 -11 -20 -12 -10 -18 -14 -15 -7
4 6 3 14 -3 18 -5 3 -11 -1 -11 -9 -2 -25 -4 -30 -12 -43 -5 -7 -5 -17 -2 -23
3 -5 0 -7 -9 -4 -8 3 -17 12 -20 21 -4 11 -2 13 9 10 8 -4 17 -2 20 3 6 9 -8
14 -27 11 -13 -2 -9 6 9 20 11 10 14 10 9 2 -4 -8 -2 -13 5 -13 6 0 9 8 6 20
-3 11 -1 18 4 14 5 -3 9 6 9 20 0 14 9 31 21 40 12 8 18 19 14 25 -3 6 1 11 9
11 22 0 20 -16 -4 -33 -16 -11 -18 -16 -7 -20 18 -7 38 33 30 61 -3 13 7 30
33 56 20 20 34 39 31 43 -4 3 3 14 15 25 19 16 23 17 38 3 9 -8 20 -12 25 -8z
m95 -37 c0 -5 -10 -17 -23 -27 -67 -54 -224 -289 -317 -473 -104 -207 -172
-427 -206 -663 -23 -165 -16 -537 14 -682 48 -231 101 -394 182 -556 39 -76
40 -80 25 -109 -9 -17 -20 -30 -25 -30 -9 0 -51 82 -102 200 -30 68 -95 257
-112 325 -147 589 -70 1147 232 1680 40 70 175 265 228 329 l58 69 23 -27 c13
-15 23 -31 23 -36z m3355 13 c22 -26 60 -75 84 -108 25 -33 56 -76 70 -95 14
-19 45 -66 68 -105 266 -448 364 -901 308 -1415 -27 -247 -108 -516 -227 -754
l-40 -79 -25 25 -25 26 25 43 c69 118 171 419 202 594 44 254 46 566 5 785
-55 301 -189 613 -382 888 -35 51 -111 145 -130 163 -10 9 -18 19 -18 23 0 9
33 55 40 56 3 0 24 -21 45 -47z m-1995 -108 c0 -12 -38 -32 -44 -23 -1 1 -19
39 -39 83 l-37 80 60 -63 c33 -34 60 -69 60 -77z m641 70 c-17 -32 -31 -65
-31 -75 0 -9 -3 -19 -6 -23 -8 -8 -54 14 -54 25 0 12 112 139 117 134 3 -2 -9
-30 -26 -61z m-1839 -105 c35 -27 61 -85 53 -118 -10 -40 -50 -87 -85 -102
-65 -27 -151 28 -166 105 -7 40 25 107 60 123 37 18 111 14 138 -8z m3097 -6
c43 -36 57 -93 35 -139 -48 -102 -175 -111 -223 -16 -26 51 -26 74 0 121 26
46 49 58 111 59 36 1 53 -5 77 -25z m-1467 1 c80 -21 212 -84 293 -141 39 -27
187 -164 330 -305 273 -268 338 -328 425 -394 70 -52 171 -149 145 -140 -46
18 -181 56 -217 61 -34 6 -38 4 -38 -14 0 -15 5 -19 20 -15 17 5 20 0 20 -31
0 -27 -7 -42 -30 -63 -48 -42 -33 -62 17 -23 14 11 29 18 33 15 5 -3 6 12 3
34 -3 21 -1 41 4 44 14 9 113 -62 160 -113 64 -71 84 -122 32 -82 -13 11 -51
34 -84 52 -33 18 -69 40 -80 49 -11 9 16 -20 60 -65 77 -78 116 -137 131 -199
l7 -30 -24 21 c-22 20 -101 64 -113 64 -3 0 10 -24 28 -53 36 -56 70 -155 64
-185 -3 -12 -11 -5 -33 28 -50 75 -90 108 -58 48 12 -24 18 -63 20 -138 4
-116 7 -114 -54 -34 l-22 29 0 -53 c-1 -33 -9 -68 -22 -95 -26 -51 -120 -144
-195 -194 -30 -20 -52 -38 -50 -40 7 -7 107 47 160 85 27 20 45 29 40 21 -5
-9 -90 -107 -189 -218 -162 -183 -211 -243 -271 -336 l-19 -30 45 34 c25 19
84 74 133 122 48 49 87 85 87 81 0 -14 -123 -248 -147 -281 -44 -57 7 -21 68
49 29 33 54 58 57 56 7 -8 -29 -120 -59 -179 -49 -97 -104 -164 -288 -349
-271 -271 -300 -305 -245 -274 16 9 42 26 58 39 166 127 211 157 233 157 34 0
83 -51 83 -86 0 -22 -18 -45 -80 -105 -44 -42 -80 -72 -80 -67 0 5 11 31 25
58 14 27 25 52 25 55 0 6 -201 -172 -225 -199 -9 -10 -185 -151 -293 -234
l-42 -33 -68 47 c-64 46 -93 68 -172 133 -83 68 -151 129 -237 214 -51 50 -93
88 -93 85 0 -3 13 -36 30 -73 17 -37 30 -68 30 -69 0 -2 -38 35 -85 82 -96 95
-103 116 -56 163 46 45 77 40 158 -29 78 -66 213 -165 213 -155 0 16 -90 114
-261 284 -140 139 -202 208 -244 273 -31 49 -59 95 -62 104 -3 10 -14 36 -25
60 -10 23 -21 57 -24 75 -6 30 -2 27 70 -48 81 -86 97 -90 41 -10 -33 45 -135
242 -135 259 0 4 32 -29 71 -74 40 -44 75 -80 78 -80 4 0 31 -20 60 -45 80
-69 80 -63 -8 55 -96 130 -166 213 -300 355 -128 135 -159 179 -83 118 41 -34
134 -83 154 -83 7 0 -9 14 -35 31 -64 40 -176 154 -195 199 -8 19 -18 62 -21
95 l-6 60 -31 -53 c-28 -48 -32 -51 -38 -30 -15 56 -2 168 30 253 10 26 -63
-60 -82 -98 -23 -43 -28 -25 -14 44 8 37 28 84 51 120 21 32 36 59 33 59 -10
0 -90 -43 -107 -58 -32 -29 -32 -1 1 61 34 64 98 136 170 194 l40 32 25 -19
c51 -40 66 -15 17 28 -37 33 -44 92 -10 92 11 0 20 7 20 15 0 8 -6 15 -12 15
-34 0 -186 -43 -219 -62 -22 -12 -41 -19 -44 -16 -6 5 41 49 175 163 103 88
223 200 346 320 393 387 451 432 659 501 85 28 257 33 347 9z m-2155 -178 c-6
-20 -26 -19 -24 1 1 12 6 18 14 15 8 -3 12 -10 10 -16z m20 -9 c-3 -8 -6 -5
-6 6 -1 11 2 17 5 13 3 -3 4 -12 1 -19z m816 -443 c20 -8 38 -19 42 -25 8 -13
-1 -13 -27 1 -28 15 -33 5 -13 -25 10 -14 13 -26 8 -26 -9 0 -53 70 -53 84 0
8 3 8 43 -9z m2357 -25 c-11 -22 -28 -40 -37 -40 -14 0 -14 2 2 20 24 26 11
39 -15 15 -22 -20 -42 -13 -21 8 11 11 65 34 84 36 4 1 -2 -17 -13 -39z
m-3060 -5 c0 -24 -2 -25 -70 -25 -61 0 -70 2 -70 18 0 29 8 32 77 32 61 0 63
-1 63 -25z m3860 16 c0 -5 3 -16 6 -25 5 -14 -5 -16 -70 -16 -74 0 -76 1 -76
25 0 24 2 25 70 25 39 0 70 -4 70 -9z m-3155 -351 c-3 -51 -11 -60 -103 -115
-43 -25 -87 -52 -99 -61 -13 -9 -23 -12 -23 -7 0 17 66 103 106 137 30 25 109
81 121 85 1 1 0 -17 -2 -39z m-15 -989 c0 -16 82 -111 96 -111 8 0 14 -4 14
-8 0 -15 64 -92 76 -92 23 0 33 -27 44 -115 6 -50 13 -98 16 -107 9 -31 -13
-20 -36 17 -12 19 -27 35 -34 35 -8 0 -25 12 -40 26 -33 34 -34 77 -2 114 l23
28 -93 99 c-92 96 -109 123 -79 123 8 0 15 -4 15 -9z m2384 1 c3 -5 -19 -33
-49 -62 -30 -30 -55 -60 -55 -67 0 -7 -13 -19 -30 -28 -16 -8 -33 -23 -39 -32
-5 -10 -13 -14 -17 -10 -4 4 2 14 14 23 12 8 22 21 22 29 0 7 13 23 29 34 16
12 46 44 66 71 36 49 49 58 59 42z m-2366 -117 c72 -73 100 -117 75 -114 -5 0
-39 36 -77 80 -40 46 -77 79 -87 79 -19 0 -26 20 -12 33 12 13 20 7 101 -78z
m2410 53 c-14 -5 -58 -47 -98 -93 -40 -47 -74 -85 -76 -85 -2 0 -4 8 -4 18 0
9 38 57 84 106 76 80 86 88 101 76 16 -13 15 -15 -7 -22z m-2508 -98 c0 -6
-12 -34 -26 -62 -15 -29 -42 -88 -61 -132 -19 -45 -37 -87 -40 -93 -4 -9 8
-13 41 -13 25 0 46 -1 46 -3 0 -1 -15 -40 -34 -85 l-34 -82 31 0 c18 0 46 4
64 9 17 5 34 7 36 5 2 -3 -8 -36 -24 -74 -42 -103 -83 -229 -77 -235 3 -3 35
5 72 19 58 20 66 22 61 8 -25 -64 -10 -121 42 -162 22 -17 38 -21 79 -18 51 3
53 2 91 -42 21 -25 54 -65 73 -89 l33 -43 -44 22 c-91 47 -232 132 -286 173
-31 23 -77 57 -102 76 -55 40 -361 346 -361 361 0 6 31 10 79 10 l80 0 48 -52
c26 -28 66 -71 89 -95 l41 -44 13 45 12 45 -58 55 -59 54 28 29 c33 36 34 46
3 66 -22 15 -25 14 -47 -9 -21 -23 -28 -24 -146 -24 -110 0 -123 2 -123 18 0
9 -3 33 -6 53 l-6 37 128 1 c107 1 133 5 154 20 25 18 113 161 105 170 -7 6
-106 -63 -135 -94 -23 -24 -28 -25 -154 -25 -95 1 -138 5 -156 15 -14 8 -37
14 -52 15 -23 0 -31 8 -53 53 -30 64 -30 63 -9 71 12 4 31 -8 62 -40 51 -51
77 -64 128 -64 72 0 154 67 154 127 0 20 6 22 63 25 171 8 237 8 237 -2z
m2818 -50 c35 -71 85 -103 154 -97 52 4 111 38 127 73 10 23 42 36 61 24 9 -6
5 -21 -16 -60 -26 -48 -34 -55 -79 -68 -29 -9 -105 -17 -180 -19 -129 -4 -130
-4 -159 23 -26 24 -123 94 -131 94 -15 0 55 -124 88 -158 l42 -43 115 1 c63 1
120 1 125 1 7 -1 9 -19 5 -48 l-5 -48 -119 -3 c-117 -3 -120 -2 -147 24 -26
25 -28 25 -53 9 -25 -17 -26 -18 -9 -46 10 -16 21 -29 25 -29 23 0 2 -42 -45
-88 -52 -52 -53 -54 -43 -88 6 -18 15 -34 19 -34 5 0 32 26 60 57 120 132 106
123 196 123 45 0 81 -4 81 -9 0 -18 -305 -318 -384 -377 -158 -119 -380 -254
-394 -240 -3 4 -2 10 4 14 5 4 36 39 67 78 l57 72 47 -6 c104 -11 170 82 128
181 -7 16 -5 17 11 8 34 -20 112 -50 117 -45 5 6 -54 211 -77 266 -9 21 -16
40 -16 43 0 4 30 3 66 0 l66 -8 -27 54 c-14 30 -32 66 -40 81 -8 14 -15 29
-15 32 0 3 22 6 49 8 l50 3 -35 80 c-20 44 -45 105 -56 135 -11 30 -24 59 -29
65 -22 23 -1 27 132 24 l140 -4 27 -55z m-525 -28 c15 -15 27 -38 27 -51 0
-35 -28 -80 -55 -87 -13 -3 -36 -22 -51 -41 -14 -19 -28 -32 -30 -30 -3 3 -1
24 5 48 5 24 15 77 22 117 11 63 15 72 34 72 12 0 33 -13 48 -28z m152 -42 c6
-8 12 -26 15 -40 3 -15 14 -26 28 -30 32 -7 29 -24 -5 -28 -20 -3 -59 -35
-141 -119 -62 -63 -114 -122 -114 -131 0 -9 1 -50 2 -90 l3 -73 -44 -47 c-24
-26 -67 -72 -96 -102 -38 -40 -54 -67 -61 -100 l-10 -45 -2 35 c-8 121 -5 144
20 174 19 23 26 45 30 93 6 82 24 82 28 0 3 -58 0 -67 -28 -101 -16 -22 -30
-48 -30 -59 0 -16 7 -12 40 21 l40 40 1 88 c0 49 4 124 8 166 l8 78 107 115
c61 66 106 123 106 135 0 26 17 26 25 0 5 -16 -16 -45 -102 -136 -59 -63 -111
-121 -115 -128 -9 -16 -12 -82 -10 -191 l2 -90 24 25 c21 21 25 36 27 96 1 39
-1 76 -4 82 -4 5 49 72 118 149 135 150 145 171 100 213 -13 12 -22 27 -19 32
6 10 33 -8 49 -32z m-2354 1 c-38 -52 -27 -77 70 -172 107 -104 179 -192 179
-216 0 -13 -4 -23 -10 -23 -5 0 -10 11 -10 25 0 14 -3 25 -7 25 -5 0 -6 -36
-3 -80 4 -68 9 -83 30 -105 l25 -25 -2 136 c-2 158 0 152 -113 263 -87 86
-115 124 -106 146 8 22 26 18 26 -6 0 -14 36 -59 96 -122 53 -55 102 -115 110
-133 10 -23 14 -76 14 -172 l0 -138 50 -49 c42 -42 50 -55 49 -85 -1 -27 -3
-30 -7 -14 -4 12 -51 68 -104 125 -54 56 -98 105 -98 108 0 4 -26 34 -57 67
-90 95 -184 212 -175 218 5 3 58 -51 118 -119 59 -69 110 -125 111 -125 2 0 3
32 3 71 l0 70 -96 99 c-53 55 -103 108 -111 120 -10 14 -25 20 -54 20 -21 0
-39 5 -39 10 0 6 6 10 13 11 6 1 21 2 32 3 13 1 21 9 23 26 4 25 38 70 54 70
5 0 0 -13 -11 -29z m247 -315 c11 -26 6 -22 -35 24 -26 30 -78 87 -115 126
-37 39 -68 76 -68 83 0 20 203 -197 218 -233z m2057 234 c3 -5 -44 -62 -105
-127 l-111 -117 7 -42 c4 -32 2 -42 -10 -47 -13 -5 -15 3 -12 48 3 41 10 62
31 87 25 30 187 205 192 207 1 1 5 -3 8 -9z m-2971 -61 c50 -23 58 -112 13
-144 -12 -8 -38 -15 -59 -15 -29 0 -41 6 -57 29 -31 43 -27 84 10 115 33 28
55 32 93 15z m3737 1 c10 -6 26 -24 34 -40 13 -26 13 -34 2 -62 -19 -44 -41
-61 -80 -60 -59 2 -97 77 -66 133 18 34 73 48 110 29z m-691 -88 c0 -12 -210
-252 -221 -252 -21 0 -6 25 49 83 32 34 80 88 106 120 45 52 66 69 66 49z
m-2913 -222 c176 -204 397 -392 598 -507 151 -87 426 -198 565 -229 179 -39
251 -54 280 -57 29 -4 127 -63 118 -73 -5 -5 -179 20 -293 42 -250 49 -540
162 -760 297 -145 90 -352 263 -471 393 -97 107 -188 214 -183 217 2 1 13 7
24 14 11 6 23 11 26 10 3 -1 46 -49 96 -107z m3517 95 c17 -13 15 -18 -43 -89
-128 -157 -337 -358 -452 -436 -150 -101 -192 -127 -249 -158 -36 -18 -81 -42
-100 -52 -130 -69 -368 -150 -548 -185 -153 -30 -248 -45 -282 -45 l-25 0 30
25 c37 31 81 56 87 50 14 -14 319 58 481 114 216 75 385 167 612 334 89 65
271 243 370 361 44 52 85 95 90 95 6 0 18 -6 29 -14z m-2644 -134 c0 -50 4
-64 30 -96 45 -57 38 -79 -10 -28 -39 41 -40 44 -40 113 0 40 4 70 10 70 6 0
10 -26 10 -59z m1997 23 c8 -21 -13 -42 -28 -27 -13 13 -5 43 11 43 6 0 13 -7
17 -16z m-2319 -11 c-4 -22 -22 -20 -26 1 -2 10 3 16 13 16 10 0 15 -7 13 -17z
m386 -55 c3 -27 3 -48 -1 -48 -16 0 -32 39 -33 80 0 38 2 42 14 30 7 -8 16
-36 20 -62z m1556 24 c0 -40 -23 -83 -36 -69 -5 4 -3 17 4 27 6 11 9 26 6 35
-5 13 11 45 22 45 2 0 4 -17 4 -38z m-1968 -19 c13 -12 37 -17 79 -17 58 -1
62 -3 100 -44 38 -40 40 -45 38 -102 l-2 -59 72 -80 c75 -83 101 -98 101 -58
0 12 5 29 11 37 7 11 9 3 7 -32 -2 -44 0 -48 48 -90 27 -24 69 -58 93 -76 25
-18 38 -32 30 -32 -25 0 -119 60 -159 102 -39 40 -54 42 -25 4 8 -11 15 -26
15 -33 0 -28 -20 -10 -61 55 -23 37 -69 97 -101 133 l-59 66 12 45 c11 41 10
48 -10 82 -35 56 -62 70 -126 63 -45 -5 -56 -2 -71 15 -13 13 -27 18 -44 15
-23 -5 -24 -4 -5 9 24 18 34 18 57 -3z m2392 11 c9 -3 16 -10 16 -15 0 -4 -7
-6 -16 -2 -8 3 -25 -4 -39 -17 -21 -20 -27 -21 -58 -11 -45 15 -91 -2 -130
-48 -29 -35 -33 -61 -16 -110 10 -29 9 -34 -28 -74 -57 -62 -129 -159 -137
-184 -8 -24 -33 -49 -42 -40 -3 3 2 19 11 36 20 39 7 40 -29 2 -42 -44 -133
-103 -152 -99 -13 2 -8 10 22 29 21 14 63 47 92 74 49 44 52 50 54 98 l2 52 3
-47 4 -48 28 14 c15 8 57 49 94 90 63 73 65 76 55 109 -8 28 -7 42 10 80 27
60 58 80 133 81 41 1 64 7 76 19 19 19 24 20 47 11z m-1894 -80 c0 -3 -11 -19
-25 -36 -21 -25 -25 -39 -25 -99 0 -39 5 -79 10 -90 12 -21 1 -26 -18 -7 -8 8
-12 45 -12 100 0 83 2 91 26 113 26 24 44 32 44 19z m1410 -45 c17 -30 12
-165 -6 -183 -22 -22 -25 -20 -14 10 6 14 10 53 10 88 0 56 -3 65 -30 91 -16
15 -27 32 -24 36 7 11 52 -18 64 -42z m-1773 9 c23 -18 15 -65 -13 -87 -15
-12 -32 -21 -39 -21 -24 0 -65 41 -65 65 0 33 47 68 80 60 13 -4 31 -11 37
-17z m2161 6 c28 -19 29 -67 2 -94 -32 -32 -62 -26 -93 19 -14 21 -14 27 -2
52 13 25 28 34 60 38 6 0 21 -6 33 -15z m-1758 3 c0 -2 -16 -18 -35 -37 -38
-37 -47 -28 -14 14 16 21 49 36 49 23z m1350 -69 c0 -16 -17 -8 -48 23 -18 17
-29 36 -26 41 6 10 74 -49 74 -64z m185 -34 c29 -19 32 -34 7 -34 -26 0 -56
25 -48 38 9 15 12 15 41 -4z m-1765 -9 c0 -16 -46 -32 -58 -20 -8 8 26 35 45
35 7 0 13 -7 13 -15z m322 -270 c11 -20 11 -20 -11 0 -13 11 -28 29 -33 40
-11 20 -11 20 11 0 13 -11 28 -29 33 -40z m78 -65 c23 -27 37 -50 31 -50 -13
0 -91 80 -91 93 0 18 22 3 60 -43z m930 -20 c0 -5 -10 -15 -22 -21 -23 -12
-23 -12 -4 10 21 23 26 26 26 11z"/>
<path d="M3421 3719 c-7 -12 -10 -23 -8 -26 3 -3 11 5 17 17 6 12 10 23 8 25
-2 2 -10 -5 -17 -16z"/>
<path d="M696 3968 c3 -4 12 -8 20 -8 8 0 14 4 14 8 0 4 -9 8 -19 8 -11 0 -17
-4 -15 -8z"/>
<path d="M659 3913 c-13 -16 -12 -17 4 -4 9 7 17 15 17 17 0 8 -8 3 -21 -13z"/>
<path d="M550 3800 c0 -5 5 -10 11 -10 5 0 7 5 4 10 -3 6 -8 10 -11 10 -2 0
-4 -4 -4 -10z"/>
<path d="M880 3758 c-25 -28 -26 -52 0 -78 22 -22 60 -26 91 -10 24 13 26 72
3 94 -22 23 -70 20 -94 -6z"/>
<path d="M3970 3760 c-40 -40 -12 -100 45 -100 41 0 65 22 65 59 0 56 -70 81
-110 41z"/>
<path d="M3120 3442 c0 -12 82 -88 110 -102 16 -8 3 10 -35 49 -56 58 -75 71
-75 53z"/>
<path d="M1757 3388 c-51 -43 -56 -61 -10 -33 28 17 68 63 61 70 -2 2 -25 -14
-51 -37z"/>
<path d="M3040 3380 c-31 -40 -56 -47 -84 -21 -17 16 -23 18 -23 7 0 -8 4 -13
8 -10 4 2 10 0 14 -6 3 -5 2 -10 -4 -10 -6 0 -7 -7 -4 -17 4 -9 2 -14 -3 -10
-6 3 -11 -4 -11 -15 -2 -20 -1 -20 22 2 19 18 31 21 59 16 34 -7 36 -5 37 21
l1 28 8 -25 c6 -19 8 -14 7 23 -1 26 -2 47 -3 47 0 0 -11 -13 -24 -30z"/>
<path d="M3115 3343 c1 -36 6 -58 18 -70 16 -17 19 -16 47 12 l30 30 -48 41
-47 41 0 -54z"/>
<path d="M1783 3352 l-42 -37 30 -28 c29 -27 32 -27 49 -12 14 12 18 30 17 66
0 27 -3 49 -6 49 -3 -1 -25 -18 -48 -38z"/>
<path d="M1914 3372 c4 -7 1 -15 -8 -18 -8 -3 -14 -14 -13 -25 1 -16 7 -18 42
-12 22 3 41 6 42 7 1 1 -14 15 -34 31 -20 16 -33 23 -29 17z"/>
<path d="M2230 3356 c0 -7 -7 -19 -15 -26 -9 -7 -25 -27 -37 -44 -14 -21 -6
-16 26 17 45 47 56 67 36 67 -5 0 -10 -6 -10 -14z"/>
<path d="M2598 3348 c-13 -13 -17 -17 -8 -10 9 6 22 12 28 12 7 0 12 5 12 10
0 15 -6 12 -32 -12z"/>
<path d="M2391 3300 c35 -33 72 -60 82 -60 22 0 87 48 87 64 0 7 -3 8 -8 0
-14 -20 -57 -44 -79 -44 -13 0 -46 21 -78 50 -78 70 -80 62 -4 -10z"/>
<path d="M2107 3325 c-4 -8 -2 -17 3 -20 6 -4 10 3 10 14 0 25 -6 27 -13 6z"/>
<path d="M2577 3275 c-34 -30 -54 -56 -48 -60 12 -7 107 69 122 97 19 35 -15
18 -74 -37z"/>
<path d="M2754 3318 c3 -10 0 -18 -6 -18 -8 0 -7 -6 3 -15 9 -9 23 -13 31 -10
19 7 16 41 -2 37 -7 -2 -17 3 -23 10 -6 9 -7 8 -3 -4z m30 -23 c-4 -8 -11 -15
-16 -15 -6 0 -5 6 2 15 7 8 14 15 16 15 2 0 1 -7 -2 -15z"/>
<path d="M1675 3310 c-3 -6 1 -7 9 -4 18 7 21 14 7 14 -6 0 -13 -4 -16 -10z"/>
<path d="M3280 3295 c13 -14 25 -25 27 -25 2 0 -4 11 -13 25 -9 14 -21 25 -27
25 -6 0 0 -11 13 -25z"/>
<path d="M2228 3275 c-27 -23 -38 -43 -18 -30 6 3 10 2 10 -4 0 -6 12 -17 28
-25 15 -8 24 -15 20 -16 -3 0 7 -14 23 -31 28 -30 49 -83 49 -126 0 -29 25
-30 42 -3 14 22 38 27 38 7 0 -7 -16 -21 -35 -31 -29 -16 -35 -25 -36 -55 -3
-94 -15 -92 -21 4 -9 153 -50 221 -166 275 -35 17 -57 20 -113 16 -50 -3 -68
-2 -66 7 1 8 -16 13 -48 15 -40 3 -48 1 -37 -9 18 -19 15 -29 -8 -29 -11 0
-20 5 -20 10 0 13 -27 13 -35 -1 -4 -6 2 -21 14 -33 22 -23 28 -46 11 -46 -5
0 -39 28 -75 61 -36 34 -68 60 -70 57 -3 -3 24 -36 60 -73 35 -37 62 -72 59
-76 -7 -12 -43 8 -51 27 -7 18 -33 19 -33 1 0 -8 9 -22 20 -32 11 -10 20 -22
20 -27 0 -14 -27 -9 -40 7 -11 13 -14 13 -26 -2 -12 -16 -10 -20 8 -36 19 -16
19 -19 6 -35 -9 -9 -19 -28 -23 -42 -6 -24 -6 -24 19 5 14 17 35 44 47 60 77
106 237 167 346 131 64 -21 120 -78 139 -141 15 -53 18 -189 5 -247 -5 -21 -7
-38 -5 -38 2 0 31 18 65 40 33 21 70 42 80 45 10 4 19 13 19 21 0 18 1 18 -56
-12 l-49 -26 45 41 c25 22 48 41 53 41 4 0 7 32 7 71 0 57 -4 77 -21 101 -12
17 -22 43 -21 59 0 23 -12 41 -60 86 -33 32 -63 59 -66 60 -4 1 -19 -9 -34
-22z m-274 -11 c13 -5 14 -9 5 -20 -15 -18 -39 -18 -39 -1 0 12 9 27 16 27 1
0 10 -3 18 -6z m330 0 c24 -9 9 -24 -24 -24 -22 0 -28 4 -24 15 6 16 22 19 48
9z m86 -128 c0 -8 -5 -18 -11 -22 -14 -8 -33 11 -25 25 10 16 36 13 36 -3z"/>
<path d="M2634 3249 c-72 -64 -72 -64 -66 -94 4 -25 -32 -95 -49 -95 -5 0 -9
-29 -9 -64 l0 -64 50 -38 c28 -21 50 -45 50 -53 0 -11 -5 -10 -22 6 -13 11
-35 28 -50 38 -25 15 -28 16 -28 1 0 -9 21 -26 50 -41 27 -14 65 -39 85 -56
20 -18 37 -30 40 -28 2 2 -3 29 -11 59 -17 61 -14 161 8 232 7 26 31 61 58 89
37 39 55 49 104 60 51 11 67 11 124 -4 91 -24 189 -100 241 -187 21 -35 21
-35 21 -8 0 15 -8 31 -17 37 -16 9 -16 12 7 36 20 22 22 28 10 35 -9 6 -19 5
-24 0 -14 -14 -46 -12 -46 3 0 7 9 18 20 25 18 11 28 42 14 42 -3 0 -20 -12
-37 -26 -38 -32 -50 -14 -16 22 30 32 18 41 -19 14 -44 -32 -65 -15 -24 19 24
20 29 30 22 41 -8 13 -13 13 -30 2 -23 -14 -40 -8 -40 14 0 10 -12 14 -40 14
-29 0 -40 -4 -40 -15 0 -12 -12 -14 -64 -9 -52 4 -74 1 -110 -15 -65 -28 -114
-69 -136 -110 -25 -51 -43 -151 -38 -211 4 -35 2 -50 -6 -47 -6 2 -12 28 -14
58 -3 48 -7 57 -40 86 -20 17 -33 35 -29 39 4 4 20 -5 35 -19 31 -30 42 -27
42 12 1 41 51 126 97 164 l42 34 -29 28 -28 27 -58 -53z m90 5 c4 -10 -3 -14
-29 -14 -37 0 -46 13 -18 28 20 12 39 6 47 -14z m306 12 c0 -2 3 -11 6 -20 5
-12 0 -16 -20 -16 -24 0 -35 18 -19 33 7 8 33 10 33 3z"/>
<path d="M3201 3266 c-18 -19 -29 -36 -24 -39 5 -3 23 9 41 28 18 18 29 36 24
39 -5 3 -23 -10 -41 -28z"/>
<path d="M2340 3284 c0 -4 15 -22 34 -40 24 -23 40 -32 52 -27 16 6 16 7 2 12
-9 3 -30 18 -47 34 -31 27 -41 32 -41 21z"/>
<path d="M1674 3248 c-9 -14 53 -71 67 -63 5 4 -3 21 -18 40 -31 37 -38 41
-49 23z"/>
<path d="M3237 3232 c-15 -15 -27 -31 -27 -35 0 -13 25 -7 50 13 l25 19 22
-27 c11 -15 25 -24 29 -20 6 7 -54 78 -67 78 -3 0 -17 -13 -32 -28z"/>
<path d="M3340 3242 c6 -13 14 -21 18 -18 3 4 -2 14 -12 24 -18 16 -18 16 -6
-6z"/>
<path d="M1654 3169 c-3 -6 1 -18 10 -27 15 -15 17 -15 32 0 19 19 11 38 -16
38 -10 0 -22 -5 -26 -11z"/>
<path d="M3244 3169 c-3 -6 1 -18 9 -27 13 -12 19 -13 31 -3 8 7 12 19 9 27
-6 17 -39 19 -49 3z"/>
<path d="M3400 3120 c-15 -9 -7 -26 21 -40 16 -9 19 -7 19 14 0 26 -19 39 -40
26z"/>
<path d="M1570 3074 c-33 -39 -29 -62 9 -49 25 8 65 61 56 75 -12 19 -33 10
-65 -26z"/>
<path d="M3323 3103 c-7 -2 -13 -11 -13 -18 0 -15 60 -65 78 -65 26 0 22 24
-9 56 -34 35 -36 36 -56 27z"/>
<path d="M1632 3037 c-30 -30 -32 -38 -32 -100 0 -73 -19 -95 -22 -24 0 23 -1
49 0 58 1 9 -9 21 -22 27 -21 9 -28 6 -59 -26 -52 -55 -53 -86 -6 -136 34 -37
39 -39 51 -25 7 9 44 45 82 80 66 60 70 66 71 109 2 81 -12 90 -63 37z m32
-43 c4 -9 4 -19 2 -22 -10 -9 -36 8 -36 23 0 20 26 19 34 -1z m-114 -88 c0 -8
-5 -18 -10 -21 -13 -8 -42 14 -34 26 9 15 44 10 44 -5z"/>
<path d="M3257 3013 l-5 -58 46 -45 47 -45 3 69 c3 68 3 69 -34 102 -20 19
-40 34 -44 34 -4 0 -10 -26 -13 -57z m61 -25 c-7 -19 -38 -22 -38 -4 0 10 9
16 21 16 12 0 19 -5 17 -12z"/>
<path d="M2474 3052 c4 -7 2 -12 -3 -12 -6 0 -11 -5 -11 -11 0 -5 6 -7 13 -3
10 6 10 4 0 -7 -8 -8 -13 -41 -13 -86 0 -60 3 -71 15 -67 12 5 15 25 15 94 0
56 -4 91 -12 96 -7 4 -8 3 -4 -4z"/>
<path d="M3393 2998 c-18 -9 -22 -21 -25 -77 -4 -63 -3 -67 26 -93 l31 -27 32
33 c52 55 52 78 1 130 -37 39 -46 43 -65 34z m57 -74 c0 -3 -5 -14 -10 -25
-15 -28 -40 -24 -40 6 0 20 5 25 25 25 14 0 25 -3 25 -6z"/>
<path d="M1922 2940 c-13 -6 -43 -26 -65 -46 -23 -19 -73 -51 -112 -70 -64
-31 -67 -34 -37 -34 45 0 66 -13 93 -57 55 -93 72 -112 115 -129 31 -12 59
-15 94 -11 51 6 60 1 38 -22 -8 -8 -2 -7 12 2 29 19 70 69 93 114 35 67 12
166 -53 228 -26 25 -40 30 -93 32 -34 2 -73 -2 -85 -7z m136 -70 c43 -40 15
-90 -49 -90 -64 0 -90 49 -47 90 12 11 34 20 48 20 14 0 36 -9 48 -20z m-175
-157 c4 -6 16 -9 26 -6 10 3 22 0 25 -6 4 -6 20 -8 38 -4 23 4 33 2 40 -11 6
-11 16 -15 30 -10 14 4 18 2 14 -5 -4 -6 -2 -9 6 -6 8 3 26 24 41 47 19 30 27
36 27 23 0 -22 -35 -85 -54 -98 -24 -16 -89 -28 -117 -22 -66 15 -118 93 -102
154 7 25 7 24 13 -9 3 -20 9 -41 13 -47z"/>
<path d="M2875 2931 c-41 -25 -60 -49 -75 -95 -25 -78 -6 -177 43 -220 44 -38
72 -60 60 -46 -21 23 -16 25 55 25 89 0 141 32 173 105 28 64 60 90 113 90
l41 0 -58 24 c-31 13 -73 37 -93 52 -87 70 -116 84 -174 84 -36 0 -65 -6 -85
-19z m126 -61 c25 -14 25 -61 0 -84 -43 -39 -90 18 -57 69 18 28 28 30 57 15z
m-109 -35 c0 -5 -5 -11 -11 -13 -6 -2 -11 4 -11 13 0 9 5 15 11 13 6 -2 11 -8
11 -13z m169 -97 c0 -31 1 -32 11 -10 11 23 28 30 28 12 0 -23 -42 -91 -65
-106 -30 -20 -101 -23 -142 -5 -35 14 -73 66 -73 97 1 18 1 18 15 -1 40 -56
79 -71 106 -39 8 10 22 14 39 10 31 -6 50 9 50 39 0 46 30 48 31 3z"/>
<path d="M3532 2910 c0 -14 2 -19 5 -12 2 6 2 18 0 25 -3 6 -5 1 -5 -13z"/>
<path d="M1410 2862 c0 -18 55 -75 69 -71 7 3 -5 20 -29 44 -22 21 -40 34 -40
27z"/>
<path d="M3497 2833 c-39 -36 -43 -52 -9 -34 19 10 57 60 50 66 -2 2 -21 -12
-41 -32z"/>
<path d="M1371 2847 c-2 -23 50 -86 72 -87 16 0 5 16 -22 35 -17 11 -34 29
-40 40 -5 11 -10 16 -10 12z"/>
<path d="M3533 2800 c-35 -31 -40 -40 -23 -40 10 0 70 56 70 65 0 12 -17 2
-47 -25z"/>
<path d="M1283 2697 c-22 -17 -53 -47 -69 -65 l-27 -33 44 29 c24 16 64 42 88
57 33 20 41 29 30 36 -19 12 -19 12 -66 -24z"/>
<path d="M3607 2723 c-4 -3 -7 -9 -7 -13 0 -9 130 -93 136 -87 5 5 -104 107
-115 107 -4 0 -11 -3 -14 -7z"/>
<path d="M2385 2521 c-38 -10 -114 -48 -139 -70 -26 -23 -56 -86 -56 -118 0
-34 42 -99 69 -108 11 -3 36 -26 56 -51 36 -43 98 -84 130 -84 19 0 11 -42
-14 -78 -38 -54 -184 -99 -268 -83 -90 17 -179 94 -234 203 -20 40 -25 58 -16
61 7 4 -2 19 -27 42 -34 33 -42 37 -78 32 -42 -6 -75 -29 -88 -62 -11 -30 -2
-37 20 -15 19 19 20 19 52 0 18 -11 44 -36 58 -57 150 -228 224 -287 360 -288
57 0 88 5 128 23 75 33 180 32 285 -3 99 -32 188 -34 236 -4 50 30 151 134
198 204 44 66 111 135 129 135 6 0 17 -7 24 -15 19 -22 28 -18 22 10 -6 32
-56 75 -87 75 -54 0 -125 -51 -105 -75 11 -14 -31 -97 -81 -160 -92 -116 -223
-142 -367 -73 -92 44 -134 120 -74 134 46 11 112 55 128 85 8 16 28 36 45 44
35 19 69 70 69 105 -1 71 -64 145 -151 175 -51 19 -181 28 -224 16z m228 -67
c47 -16 111 -77 104 -99 -6 -18 -34 -17 -53 2 -12 12 -33 18 -66 19 -26 0 -51
3 -55 7 -8 9 -137 9 -146 1 -3 -3 -26 -7 -51 -8 -32 -1 -53 -9 -71 -26 -19
-18 -28 -21 -37 -12 -18 18 36 90 85 113 55 25 221 27 290 3z m-283 -164 c0
-5 -2 -10 -4 -10 -3 0 -8 5 -11 10 -3 6 -1 10 4 10 6 0 11 -4 11 -10z"/>
<path d="M2073 2174 c-3 -8 -1 -20 6 -27 14 -14 47 15 37 32 -10 16 -36 13
-43 -5z"/>
<path d="M2835 2180 c-10 -17 20 -44 40 -36 9 3 15 14 13 23 -4 21 -43 30 -53
13z"/>
<path d="M2153 2123 c-18 -7 -16 -32 3 -40 18 -7 35 14 27 34 -5 14 -10 15
-30 6z"/>
<path d="M2771 2116 c-16 -19 -6 -36 20 -36 15 0 20 6 17 22 -4 27 -21 33 -37
14z"/>
<path d="M3300 1920 c-6 -11 -9 -20 -8 -20 2 0 11 9 21 20 9 11 13 20 7 20 -5
0 -14 -9 -20 -20z"/>
<path d="M1780 1904 c0 -17 92 -100 163 -148 38 -25 67 -46 65 -46 -2 0 -26 9
-54 19 -87 33 -177 82 -211 114 -46 43 -41 19 7 -35 23 -27 77 -66 132 -98
121 -69 233 -136 283 -170 67 -44 197 -115 256 -140 l56 -23 118 57 c65 32
150 78 189 103 117 76 166 106 280 174 107 63 145 99 183 174 l15 30 -31 -29
c-17 -17 -31 -35 -31 -41 0 -7 -17 -19 -37 -28 -21 -9 -75 -37 -121 -61 -81
-43 -142 -69 -142 -61 0 3 15 12 33 21 89 45 207 137 229 179 9 16 5 15 -25
-8 -20 -15 -78 -47 -129 -72 -51 -25 -119 -59 -151 -76 -32 -17 -60 -29 -62
-27 -3 2 34 33 81 67 90 67 106 90 31 47 -24 -14 -53 -26 -64 -26 -11 0 -28
-9 -38 -20 -30 -33 -142 -101 -191 -116 -64 -19 -221 -18 -281 2 -56 19 -133
64 -186 111 -44 39 -52 41 -36 11 11 -22 11 -22 -7 -7 -23 19 -114 72 -114 66
0 -6 105 -86 143 -110 16 -10 27 -20 24 -23 -6 -6 -334 161 -359 184 -10 8
-18 11 -18 6z"/>
<path d="M3275 1862 c-6 -4 -23 -24 -38 -44 -30 -41 -24 -51 11 -18 12 11 27
20 34 20 10 0 9 3 -1 9 -12 8 -12 12 -2 25 14 17 12 20 -4 8z"/>
<path d="M1705 1790 c3 -5 8 -10 11 -10 2 0 4 5 4 10 0 6 -5 10 -11 10 -5 0
-7 -4 -4 -10z"/>
<path d="M2165 703 c15 -36 25 -52 25 -41 0 11 -30 78 -35 78 -3 0 2 -17 10
-37z"/>
<path d="M2795 729 c-4 -6 -5 -12 -2 -15 2 -3 7 2 10 11 7 17 1 20 -8 4z"/>
<path d="M2280 514 c0 -13 58 -69 65 -63 2 3 -11 21 -30 39 -19 19 -35 29 -35
24z"/>
<path d="M2629 483 c-27 -29 -28 -32 -7 -17 22 16 54 54 45 54 -2 0 -19 -16
-38 -37z"/>
<path d="M895 1529 c-4 -6 -5 -13 -2 -16 7 -7 27 6 27 18 0 12 -17 12 -25 -2z"/>
<path d="M1056 1021 c-3 -5 1 -14 9 -21 8 -7 15 -20 15 -28 0 -11 3 -13 10 -6
7 7 6 19 -2 37 -13 28 -23 33 -32 18z"/>
<path d="M3860 1010 c-6 -11 -7 -20 -2 -20 10 0 32 21 32 32 0 16 -19 8 -30
-12z"/>
<path d="M3895 4260 c3 -5 11 -10 16 -10 6 0 7 5 4 10 -3 6 -11 10 -16 10 -6
0 -7 -4 -4 -10z"/>
<path d="M893 4238 c-11 -19 -12 -38 -2 -38 5 0 9 7 9 16 0 8 4 13 8 10 5 -3
9 1 9 9 0 18 -13 19 -24 3z"/>
<path d="M1182 3998 c6 -18 28 -21 28 -4 0 9 -7 16 -16 16 -9 0 -14 -5 -12
-12z"/>
<path d="M3742 4001 c2 -7 7 -12 11 -12 12 1 9 15 -3 20 -7 2 -11 -2 -8 -8z"/>
<path d="M1020 3475 c-11 -13 -11 -19 3 -32 21 -21 49 -9 45 19 -4 28 -30 35
-48 13z"/>
<path d="M3882 3477 c-9 -10 -8 -18 2 -32 18 -25 48 -13 44 17 -4 27 -30 35
-46 15z"/>
<path d="M3867 3003 c-4 -3 -7 -11 -7 -17 0 -6 5 -5 12 2 6 6 9 14 7 17 -3 3
-9 2 -12 -2z"/>
<path d="M4085 2800 c-3 -5 -1 -10 4 -10 6 0 11 5 11 10 0 6 -2 10 -4 10 -3 0
-8 -4 -11 -10z"/>
<path d="M436 2777 c-22 -16 -14 -52 14 -67 25 -14 63 20 53 47 -12 34 -38 41
-67 20z"/>
<path d="M4462 2778 c-36 -36 6 -91 46 -62 27 19 28 50 3 64 -25 13 -34 13
-49 -2z"/>
<path d="M436 2324 c-21 -20 -20 -30 4 -54 36 -36 83 7 54 49 -18 25 -37 27
-58 5z"/>
<path d="M4455 2320 c-17 -19 -17 -21 0 -40 20 -23 45 -26 63 -8 16 16 15 33
-4 52 -21 21 -37 20 -59 -4z"/>
<path d="M1100 2001 c0 -5 7 -11 15 -15 9 -3 15 0 15 9 0 8 -7 15 -15 15 -8 0
-15 -4 -15 -9z"/>
<path d="M3825 1999 c-4 -6 -5 -13 -2 -16 7 -7 27 6 27 18 0 12 -17 12 -25 -2z"/>
<path d="M4055 1890 c-3 -5 -1 -10 4 -10 6 0 11 5 11 10 0 6 -2 10 -4 10 -3 0
-8 -4 -11 -10z"/>
<path d="M742 1708 c-29 -29 -1 -71 39 -61 33 9 18 73 -16 73 -6 0 -16 -5 -23
-12z"/>
<path d="M4154 1706 c-10 -27 1 -51 25 -54 31 -5 45 11 37 42 -5 19 -13 26
-32 26 -13 0 -27 -6 -30 -14z"/>
</g>
</svg>
